<svg id="Layer_1" data-name="Layer 1" xmlns="http://www.w3.org/2000/svg" viewBox="0 0 600 600"><defs><style>.cls-1{fill:#ffc221;}</style></defs><title>Artboard 1</title><circle class="cls-1" cx="300" cy="300" r="166.67"/><path d="M263.39,426.59l-2.57-253.06-.25-24.16A153.43,153.43,0,0,0,237,157.61a151.76,151.76,0,0,0-13.6,6.86A156,156,0,0,0,200,180.79l.33,32.29L202.1,388.3l.33,32.28a155.55,155.55,0,0,0,23.77,15.85q6.69,3.61,13.74,6.57a153.74,153.74,0,0,0,23.69,7.76h0Zm-37.47-17.52-2.2-217.25,13.55-9s0,0,0,0l2.39,235.06s0,0,0,0l-13.73-8.76Z"/><path d="M332,451.74a153.89,153.89,0,0,1-23.58,3.07c-2.27.12-4.54.2-6.84.22H300c-1.75,0-3.51,0-5.25-.09a155.74,155.74,0,0,1-23.64-2.59l-.25-23.85-2.61-257L268,147.62a153.57,153.57,0,0,1,23.58-3.07l.24,23.32,2.68,263.87H300c.45,0,.9,0,1.35,0,2.29,0,4.56-.1,6.83-.23a131.65,131.65,0,0,0,23.58-3.6Z"/><path d="M400,418.57a155.06,155.06,0,0,1-43.24,25.77A153.35,153.35,0,0,1,339.44,450l-.25-24.16h0a131.08,131.08,0,0,0,17.33-6.77h0l-2.43-239.89h0a131,131,0,0,0-17.47-6.4h0l-.24-24.17a155.07,155.07,0,0,1,61.2,30.18l.33,32.28h0a132.75,132.75,0,0,0-17.57-16.19l2.12,208a132.09,132.09,0,0,0,17.23-16.54h0Z"/></svg>